<?xml version="1.0" standalone="no"?>
<!DOCTYPE svg PUBLIC "-//W3C//DTD SVG 20010904//EN"
 "http://www.w3.org/TR/2001/REC-SVG-20010904/DTD/svg10.dtd">
<svg version="1.0" xmlns="http://www.w3.org/2000/svg"
 width="316.000000pt" height="316.000000pt" viewBox="0 0 316.000000 316.000000"
 preserveAspectRatio="xMidYMid meet">
<metadata>
Created by potrace 1.11, written by Peter Selinger 2001-2013
</metadata>
<g transform="translate(0.000000,316.000000) scale(0.100000,-0.100000)"
fill="#000000" stroke="none">
<path d="M1475 1950 c-55 -32 -111 -65 -125 -72 -14 -8 -144 -83 -290 -167
-146 -84 -344 -199 -440 -254 -201 -116 -210 -122 -210 -153 0 -36 33 -48 72
-28 39 20 591 338 696 400 40 24 74 44 77 44 2 0 40 23 85 50 45 28 83 50 85
50 2 0 42 23 89 50 l85 51 98 -57 c237 -138 238 -139 263 -109 29 35 4 58
-169 158 -94 53 -180 97 -193 96 -13 0 -68 -27 -123 -59z"/>
<path d="M576 1809 c-66 -35 -471 -271 -484 -281 -30 -25 2 -84 40 -72 10 3
45 20 76 38 293 168 429 250 440 264 16 22 12 41 -13 58 -18 12 -26 11 -59 -7z"/>
<path d="M2544 1808 c-22 -11 -95 -53 -164 -93 -69 -40 -270 -156 -447 -259
-177 -102 -327 -186 -334 -186 -6 0 -78 40 -161 90 -82 50 -157 90 -167 90
-26 0 -44 -26 -37 -52 4 -17 53 -51 173 -122 91 -55 176 -101 187 -103 13 -2
103 44 245 127 123 71 225 130 226 130 2 0 84 48 215 125 14 8 77 45 140 81
185 105 192 110 202 127 10 19 -3 52 -26 60 -8 3 -31 -4 -52 -15z"/>
<path d="M2990 1499 c-36 -22 -74 -44 -85 -50 -11 -5 -29 -15 -40 -22 -11 -7
-42 -25 -68 -40 l-48 -29 -70 41 c-89 51 -103 55 -123 36 -38 -39 -20 -60 117
-135 l78 -42 117 68 c64 37 145 84 180 103 65 37 85 68 62 96 -19 23 -50 17
-120 -26z"/>
</g>
</svg>
