<svg width="33" height="31" viewBox="0 0 33 31" fill="none" xmlns="http://www.w3.org/2000/svg">
<path fill-rule="evenodd" clip-rule="evenodd" d="M0.25 3C0.25 1.48122 1.48122 0.25 3 0.25L11.5 0.25C12.1904 0.250001 12.75 0.809645 12.75 1.5L12.75 2.65385H13.3365C14.9456 2.65385 16.25 3.95825 16.25 5.56731C16.25 7.17637 14.9456 8.48077 13.3365 8.48077H12.75V12C12.75 12.6904 12.1904 13.25 11.5 13.25H1.5C0.809645 13.25 0.25 12.6904 0.25 12L0.25 3ZM3 1.75C2.30964 1.75 1.75 2.30964 1.75 3L1.75 11.75H11.25V8.23077C11.25 7.54041 11.8096 6.98077 12.5 6.98077H13.3365C14.1172 6.98077 14.75 6.34794 14.75 5.56731C14.75 4.78668 14.1172 4.15385 13.3365 4.15385H12.5C11.8096 4.15385 11.25 3.5942 11.25 2.90385L11.25 1.75L3 1.75ZM18.25 4.5C18.25 3.80964 18.8096 3.25 19.5 3.25H30C31.5188 3.25 32.75 4.48122 32.75 6V28C32.75 29.5188 31.5188 30.75 30 30.75H8C6.48122 30.75 5.25 29.5188 5.25 28V17.5C5.25 16.8096 5.80964 16.25 6.5 16.25H18.25V11.5C18.25 10.8096 18.8096 10.25 19.5 10.25H20C20.8284 10.25 21.5 9.57843 21.5 8.75C21.5 7.92157 20.8284 7.25 20 7.25H19.5C18.8096 7.25 18.25 6.69036 18.25 6V4.5ZM18.25 17.75H6.75V28C6.75 28.6904 7.30964 29.25 8 29.25H18.25V24.75H17.25C15.5931 24.75 14.25 23.4069 14.25 21.75C14.25 20.0931 15.5931 18.75 17.25 18.75H18.25V17.75ZM19.75 29.25V24.5C19.75 23.8096 19.1904 23.25 18.5 23.25H17.25C16.4216 23.25 15.75 22.5784 15.75 21.75C15.75 20.9216 16.4216 20.25 17.25 20.25H18.5C19.1904 20.25 19.75 19.6904 19.75 19V17.75H23.5C24.1904 17.75 24.75 17.1904 24.75 16.5V16C24.75 15.0335 25.5335 14.25 26.5 14.25C27.4665 14.25 28.25 15.0335 28.25 16V16.5C28.25 17.1904 28.8096 17.75 29.5 17.75H31.25V28C31.25 28.6904 30.6904 29.25 30 29.25H19.75ZM31.25 16.25V6C31.25 5.30964 30.6904 4.75 30 4.75H19.75V5.75H20C21.6569 5.75 23 7.09315 23 8.75C23 10.4069 21.6569 11.75 20 11.75H19.75V16.25H23.25V16C23.25 14.2051 24.7051 12.75 26.5 12.75C28.2949 12.75 29.75 14.2051 29.75 16V16.25H31.25Z" fill="#F95E3C"/>
</svg>
