<svg width="32" height="32" viewBox="0 0 32 32" fill="none" xmlns="http://www.w3.org/2000/svg">
<path d="M24.75 17.4464C23.9911 17.4464 23.375 18.0613 23.375 18.821C23.375 19.5806 23.9911 20.1955 24.75 20.1955C25.5089 20.1955 26.125 19.5806 26.125 18.821C26.125 18.0613 25.5089 17.4464 24.75 17.4464Z" fill="#34CC7A"/>
<path fill-rule="evenodd" clip-rule="evenodd" d="M22.8909 1.26084L24.8154 4.64297H26C28.1396 4.64297 29.875 6.37638 29.875 8.51577V14.6359H31.75V23.0061H29.875V27.8771C29.875 30.0165 28.1396 31.7499 26 31.7499H4.125C1.9854 31.7499 0.25 30.0165 0.25 27.8771V8.51577C0.25 6.37638 1.9854 4.64297 4.125 4.64297H12.7865L20.1748 0.505184C21.1339 -0.0319094 22.3472 0.305284 22.8909 1.26084ZM20.9078 1.81392C21.1479 1.67942 21.4514 1.76412 21.5872 2.00269L24.8666 7.76577H10.2803L20.9078 1.81392ZM28.2539 7.76577H26.5924L25.669 6.14297H26C27.0497 6.14297 27.9398 6.82309 28.2539 7.76577ZM28.375 9.26577V14.6359H24.4375C22.1253 14.6359 20.25 16.5091 20.25 18.821C20.25 21.1328 22.1253 23.0061 24.4375 23.0061H28.375V27.8771C28.375 29.187 27.3122 30.2499 26 30.2499H4.125C2.81282 30.2499 1.75 29.187 1.75 27.8771V8.51577C1.75 7.20581 2.81282 6.14297 4.125 6.14297H10.1082L7.21054 7.76577H3.8125C3.39829 7.76577 3.0625 8.10155 3.0625 8.51577C3.0625 8.92998 3.39829 9.26577 3.8125 9.26577H28.375ZM24.4375 16.1359H30.25V21.5061H24.4375C22.9527 21.5061 21.75 20.3034 21.75 18.821C21.75 17.3386 22.9527 16.1359 24.4375 16.1359Z" fill="#34CC7A"/>
</svg>
