<svg width="32" height="32" viewBox="0 0 32 32" fill="none" xmlns="http://www.w3.org/2000/svg">
<path fill-rule="evenodd" clip-rule="evenodd" d="M7.5 0.25C7.91421 0.25 8.25 0.585786 8.25 1V3.25H23.75V1C23.75 0.585786 24.0858 0.25 24.5 0.25C24.9142 0.25 25.25 0.585786 25.25 1V3.25H30C30.9665 3.25 31.75 4.0335 31.75 5V30C31.75 30.9665 30.9665 31.75 30 31.75H2C1.0335 31.75 0.25 30.9665 0.25 30V5C0.25 4.0335 1.0335 3.25 2 3.25H6.75V1C6.75 0.585786 7.08579 0.25 7.5 0.25ZM6.75 4.75H2C1.86193 4.75 1.75 4.86193 1.75 5V10H30.25V5C30.25 4.86193 30.1381 4.75 30 4.75H25.25V7C25.25 7.41421 24.9142 7.75 24.5 7.75C24.0858 7.75 23.75 7.41421 23.75 7V4.75H8.25V7C8.25 7.41421 7.91421 7.75 7.5 7.75C7.08579 7.75 6.75 7.41421 6.75 7V4.75ZM30.25 11.5H1.75V30C1.75 30.1381 1.86193 30.25 2 30.25H30C30.1381 30.25 30.25 30.1381 30.25 30V11.5ZM5.25 16.25C5.25 15.8358 5.58579 15.5 6 15.5H26C26.4142 15.5 26.75 15.8358 26.75 16.25C26.75 16.6642 26.4142 17 26 17H6C5.58579 17 5.25 16.6642 5.25 16.25ZM5.25 20.5C5.25 20.0858 5.58579 19.75 6 19.75H26C26.4142 19.75 26.75 20.0858 26.75 20.5C26.75 20.9142 26.4142 21.25 26 21.25H6C5.58579 21.25 5.25 20.9142 5.25 20.5ZM5.25 24.75C5.25 24.3358 5.58579 24 6 24H11C11.4142 24 11.75 24.3358 11.75 24.75C11.75 25.1642 11.4142 25.5 11 25.5H6C5.58579 25.5 5.25 25.1642 5.25 24.75Z" fill="#8251BC"/>
</svg>
