<svg width="137" height="44" viewBox="0 0 137 44" fill="none" xmlns="http://www.w3.org/2000/svg">
<g clip-path="url(#clip0)">
<path fill-rule="evenodd" clip-rule="evenodd" d="M75.6431 8.23763C76.1213 7.96132 76.285 7.34967 76.0087 6.87147C75.7324 6.39328 75.1207 6.22962 74.6425 6.50593L67.1556 10.832C66.6774 11.1083 66.5138 11.72 66.7901 12.1982C67.0664 12.6764 67.678 12.84 68.1562 12.5637L75.6431 8.23763ZM116.843 10.3962C117.321 10.1198 117.485 9.50816 117.209 9.03C116.932 8.55184 116.321 8.38825 115.842 8.66462L101.376 17.0258L94.3934 12.8429C93.9196 12.5591 93.3055 12.7131 93.0217 13.1869C92.7379 13.6606 92.8919 14.2748 93.3657 14.5586L100.853 19.044C101.165 19.2306 101.553 19.2336 101.868 19.0519L116.843 10.3962Z" fill="#FF00FF"/>
<path fill-rule="evenodd" clip-rule="evenodd" d="M101.869 0.0140539C101.559 -0.164668 101.178 -0.164679 100.869 0.0140261L82.1417 10.8283C81.6634 11.1045 81.4996 11.7161 81.7758 12.1944C82.052 12.6727 82.6636 12.8365 83.1418 12.5603L101.369 2.03479L108.359 6.07204C108.837 6.34825 109.449 6.18447 109.725 5.70621C110.001 5.22796 109.837 4.61635 109.359 4.34013L101.869 0.0140539ZM135.579 12.5601C136.057 12.2837 136.221 11.672 135.945 11.1939C135.668 10.7157 135.056 10.5522 134.578 10.8286L130.841 12.989C130.363 13.2654 130.199 13.877 130.476 14.3552C130.752 14.8333 131.364 14.9969 131.842 14.7205L135.579 12.5601Z" fill="#F7931E"/>
<path fill-rule="evenodd" clip-rule="evenodd" d="M79.7583 4.70595C80.0345 5.1842 79.8707 5.79582 79.3925 6.07204L75.6429 8.23772C75.1646 8.51394 74.553 8.35017 74.2768 7.87193C74.0006 7.39368 74.1644 6.78206 74.6426 6.50584L78.3922 4.34016C78.8704 4.06394 79.4821 4.22771 79.7583 4.70595Z" fill="#9E005D"/>
<path fill-rule="evenodd" clip-rule="evenodd" d="M124.709 4.70745C124.984 5.1859 124.82 5.7974 124.342 6.07327L116.843 10.3967C116.365 10.6726 115.753 10.5084 115.478 10.0299C115.202 9.55145 115.366 8.93995 115.844 8.66408L123.343 4.34064C123.821 4.06477 124.433 4.229 124.709 4.70745Z" fill="#9E005D"/>
<path fill-rule="evenodd" clip-rule="evenodd" d="M83.1412 12.5603C83.6194 12.2841 83.7832 11.6725 83.507 11.1942C83.2308 10.716 82.6192 10.5522 82.141 10.8284L74.647 15.1562C74.1688 15.4324 74.005 16.044 74.2812 16.5223C74.5574 17.0005 75.169 17.1643 75.6472 16.8881L83.1412 12.5603ZM131.842 14.7206C132.32 14.4443 132.484 13.8326 132.207 13.3544C131.931 12.8762 131.319 12.7126 130.841 12.9889L127.586 14.8698L124.342 12.9943C123.864 12.7178 123.252 12.8814 122.976 13.3595C122.699 13.8376 122.863 14.4493 123.341 14.7257L127.085 16.8905C127.395 17.0695 127.776 17.0696 128.086 16.8907L131.842 14.7206Z" fill="#F15A24"/>
<path fill-rule="evenodd" clip-rule="evenodd" d="M123.837 28.5689C123.285 28.5689 122.837 29.0166 122.837 29.5689V40.9552C122.837 41.5075 123.285 41.9552 123.837 41.9552C124.39 41.9552 124.837 41.5075 124.837 40.9552V36.2599H131.343C132.572 36.2599 133.724 35.8838 134.59 35.2266C135.457 34.5685 136.08 33.5861 136.08 32.4201C136.08 31.2548 135.458 30.27 134.592 29.6091C133.726 28.9487 132.574 28.5689 131.343 28.5689H123.837ZM131.343 34.2599H124.837V30.5689H131.343C132.175 30.5689 132.892 30.8275 133.379 31.1992C133.865 31.5702 134.08 32.0111 134.08 32.4201C134.08 32.8276 133.866 33.265 133.381 33.6334C132.894 34.0027 132.177 34.2599 131.343 34.2599Z" fill="#404040"/>
<path d="M49.8872 29.5694C49.8874 30.1217 49.4399 30.5695 48.8876 30.5698L38.6445 30.5738V34.2616H46.5264C47.0787 34.2616 47.5264 34.7093 47.5264 35.2616C47.5264 35.8139 47.0787 36.2616 46.5264 36.2616H38.6445V39.9587H48.8872C49.4395 39.9587 49.8872 40.4064 49.8872 40.9587C49.8872 41.511 49.4395 41.9587 48.8872 41.9587H37.6445C37.0922 41.9587 36.6445 41.511 36.6445 40.9587V29.5742C36.6445 29.022 37.092 28.5744 37.6441 28.5742L48.8868 28.5698C49.4391 28.5695 49.887 29.0171 49.8872 29.5694Z" fill="#404040"/>
<path d="M31.1636 29.5698C31.1636 29.2125 30.973 28.8823 30.6636 28.7037C30.3541 28.5251 29.9729 28.5251 29.6635 28.7038L22.6653 32.7454L19.4071 30.8634C18.9289 30.5871 18.3172 30.7509 18.041 31.2291C17.7647 31.7073 17.9285 32.319 18.4067 32.5952L22.1651 34.7662C22.4746 34.9449 22.8559 34.9449 23.1654 34.7662L29.1636 31.3021V40.9464C29.1636 41.4987 29.6114 41.9464 30.1636 41.9464C30.7159 41.9464 31.1636 41.4987 31.1636 40.9464V29.5698Z" fill="#404040"/>
<path d="M16.1523 29.57C16.1523 29.0178 15.7046 28.57 15.1523 28.57C14.6001 28.57 14.1523 29.0178 14.1523 29.57V40.9555C14.1523 41.5078 14.6001 41.9555 15.1523 41.9555C15.7046 41.9555 16.1523 41.5078 16.1523 40.9555V29.57Z" fill="#404040"/>
<path d="M78.8652 28.5698C79.4175 28.5698 79.8652 29.0175 79.8652 29.5698V34.2616H89.1063L89.106 29.5698C89.1059 29.0176 89.5536 28.5698 90.1059 28.5698C90.6582 28.5697 91.1059 29.0174 91.106 29.5697L91.1064 35.2259C91.1068 35.2378 91.107 35.2497 91.107 35.2616L91.1068 35.2849L91.1064 35.2971L91.1068 40.9551C91.1069 41.5074 90.6592 41.9552 90.1069 41.9552C89.5546 41.9552 89.1069 41.5076 89.1068 40.9553L89.1065 36.2616H79.8652V40.9552C79.8652 41.5075 79.4175 41.9552 78.8652 41.9552C78.313 41.9552 77.8652 41.5075 77.8652 40.9552V29.5698C77.8652 29.0175 78.313 28.5698 78.8652 28.5698Z" fill="#404040"/>
<path fill-rule="evenodd" clip-rule="evenodd" d="M96.603 40.9552C96.603 40.403 97.0507 39.9552 97.603 39.9552H98.9402L106.133 29.0262C106.318 28.7452 106.632 28.576 106.969 28.576C107.305 28.5759 107.619 28.745 107.804 29.026L115.001 39.9552H116.338C116.89 39.9552 117.338 40.403 117.338 40.9552V43.12C117.338 43.6723 116.89 44.12 116.338 44.12C115.786 44.12 115.338 43.6723 115.338 43.12V41.9552H114.57C114.501 41.9625 114.431 41.9624 114.362 41.9552H99.5786C99.5099 41.9624 99.4404 41.9625 99.3711 41.9552H98.603V43.12C98.603 43.6723 98.1553 44.12 97.603 44.12C97.0507 44.12 96.603 43.6723 96.603 43.12V40.9552ZM112.606 39.9552H101.335L106.969 31.3946L112.606 39.9552Z" fill="#404040"/>
<path fill-rule="evenodd" clip-rule="evenodd" d="M64.7119 29.0261C64.527 28.7451 64.2131 28.576 63.8767 28.576C63.5403 28.5759 63.2264 28.7451 63.0414 29.026L55.5457 40.4106C55.242 40.8719 55.3698 41.492 55.8311 41.7957C56.2923 42.0995 56.9125 41.9717 57.2162 41.5104L59.7705 37.6309H67.9817L70.5353 41.5103C70.839 41.9717 71.4591 42.0995 71.9204 41.7958C72.3817 41.4921 72.5095 40.872 72.2059 40.4107L64.7119 29.0261ZM66.6652 35.6309L63.8766 31.3946L61.0873 35.6309H66.6652Z" fill="#404040"/>
</g>
<defs>
<clipPath id="clip0">
<rect width="136.333" height="44" fill="white"/>
</clipPath>
</defs>
</svg>
