<svg width="16" height="16" fill="none" xmlns="http://www.w3.org/2000/svg"><path fill-rule="evenodd" clip-rule="evenodd" d="M8 .133c-2.133 0-2.4 0-3.267.067-.866.067-1.4.2-1.933.333-.533.2-.933.467-1.4.934-.467.466-.733.866-.933 1.4C.267 3.4.133 3.933.133 4.8.067 5.667.067 5.933.067 8.067c0 2.133 0 2.4.066 3.266.067.867.2 1.4.334 1.934.2.533.466.933.933 1.4.467.466.867.733 1.4.933.533.2 1.067.333 1.933.333C5.6 16 5.867 16 8 16s2.4 0 3.267-.067c.866-.066 1.4-.2 1.933-.333.533-.2.933-.467 1.4-.933.467-.467.733-.867.933-1.4.2-.534.334-1.067.334-1.934.066-.866.066-1.133.066-3.266 0-2.134 0-2.4-.066-3.267-.067-.867-.2-1.4-.334-1.933-.2-.534-.466-.934-.933-1.4-.467-.467-.867-.734-1.4-.934C12.667.333 12.133.2 11.267.2 10.4.133 10.133.133 8 .133zm4.2 2.734c-.533 0-.933.4-.933.933s.4.933.933.933.933-.4.933-.933-.4-.933-.933-.933zM8 3.933c-2.2 0-4.067 1.8-4.067 4.067 0 2.2 1.8 4.067 4.067 4.067 2.2 0 4.067-1.8 4.067-4.067 0-2.267-1.867-4.067-4.067-4.067zM8 5.4c1.467 0 2.6 1.2 2.6 2.6 0 1.467-1.2 2.6-2.6 2.6-1.467 0-2.6-1.2-2.6-2.6 0-1.467 1.133-2.6 2.6-2.6z" fill="#0D3A8A"/></svg>