<svg width="16" height="16" fill="none" xmlns="http://www.w3.org/2000/svg"><path fill-rule="evenodd" clip-rule="evenodd" d="M14.842 0H1.158C.507 0 0 .502 0 1.148v13.704C0 15.498.507 16 1.158 16h13.684c.651 0 1.158-.502 1.158-1.148V1.148C16 .502 15.493 0 14.842 0zM4.667 13.333H2V6h2.667v7.333zm-1.334-8A1.33 1.33 0 012 4c0-.784.491-1.333 1.333-1.333A1.33 1.33 0 014.667 4c0 .706-.492 1.333-1.334 1.333zm10 8h-2.42V9.562c0-.978-.356-1.606-1.21-1.606a1.26 1.26 0 00-1.211.838c-.071.14-.071.349-.071.558v3.912H6V6.21h2.42v.977C8.707 6.698 9.276 6 10.558 6c1.566 0 2.776.978 2.776 3.143v4.19z" fill="#0D3A8A"/></svg>