<svg width="156" height="33" fill="none" xmlns="http://www.w3.org/2000/svg"><path fill-rule="evenodd" clip-rule="evenodd" d="M6.374 9.02V7.173c-.017-.484-.06-1.574-.975-2.135V4.96v-.263h4.034c1.046 0 2.268.506 2.268 1.905v.496c0 1.144-.93 2.075-2.074 2.075H6.53a.156.156 0 01-.156-.153zm7.45 2.805c1.634-.766 2.654-2.432 2.76-4.565.132-2.65-1.167-5.12-3.149-6.002-1.008-.486-2.78-.733-5.267-.733-2.165 0-4.17.186-5.172.296-2.567.285-2.72.479-2.812.595l-.081.102v3.638l.235.094c1.45.582 1.45.708 1.442 2.783v5.347c0 1.7 1.33 2.888 3.236 2.888h1.351l.005-3.07 2.356-.004 1.806 1.948c.812 1.034 2.074 1.123 3.084 1.123l3.954.001-.511-.586c-.11-.134-2.322-2.787-3.238-3.855zm18.097-1.443h-6.598v2h11.309c0 2.194-2.36 3.886-3.98 3.884l-11.28.003V.842l.366-.006C22.782.822 31.805.832 32.442.833h.035c2.169 0 4.165 2.056 4.165 3.85H25.323v2.125h6.598v3.574zm15.574 1.993l8.438-8.254V.846L44.629.841c-1.911 0-4.053 1.905-4.053 3.842h8.915l-8.915 8.563v3.022l15.357-.003c0-2.22-1.843-3.89-4.293-3.89h-4.145zM10.523 26.238c.877 0 1.38.669 1.468 1.524H9.022c.12-.899.69-1.524 1.5-1.524zm.01-1.085c-1.654 0-2.826 1.36-2.826 3.015 0 1.809 1.292 3.026 2.97 3.026 1.062 0 1.818-.427 2.366-1.085l-.779-.69c-.46.448-.92.69-1.567.69-.854 0-1.522-.527-1.665-1.47h4.252c.01-.065.022-.285.022-.372 0-1.667-.932-3.114-2.773-3.114zm-9.115.12H.103v5.79h1.294v-3.838l1.807 2.577 1.82-2.599v3.86H6.36v-5.79H5.044L3.226 27.96l-1.808-2.686zm14.43 2.434l-2.181-2.434h1.544l2.4 2.84v-2.84h1.326v2.84l2.41-2.84h1.545l-2.18 2.434 2.257 3.356h-1.49l-1.655-2.467-.887 1.008v1.459H17.61v-1.459l-.888-1.008-1.654 2.467h-1.49l2.268-3.356zm9.904-1.293h1.906v3.508h-2.444c.34-.713.538-1.688.538-2.741v-.767zm-1.897 3.508h-.623v2.533h1.106l.131-1.393h4.054v1.393h1.107l.175-2.532h-.821v-4.65h-4.481v.714c0 1.622-.165 2.97-.648 3.936zm6.87 2.577l.45-.987c.241.131.503.22.778.22.372 0 .602-.165.822-.67l-2.411-5.789h1.413l1.644 4.299 1.5-4.299h1.382l-2.301 5.954c-.46 1.184-.976 1.623-1.907 1.623a2.7 2.7 0 01-1.37-.351zm8.042-7.226h-1.326v5.79h1.326v-2.335h2.553v2.334h1.326v-5.789H41.32v2.346h-2.553v-2.346zm9.116 3.366a3.79 3.79 0 00-1.326-.23c-.833 0-1.325.34-1.325.922 0 .547.492.854 1.117.854.877 0 1.534-.493 1.534-1.217v-.329zm-.033 2.423v-.713c-.394.472-.997.835-1.873.835-1.096 0-2.06-.626-2.06-1.81 0-1.283.997-1.897 2.345-1.897.7 0 1.15.1 1.599.241v-.11c0-.8-.504-1.239-1.425-1.239-.645 0-1.128.144-1.654.363l-.362-1.064c.636-.284 1.26-.483 2.203-.483 1.71 0 2.542.9 2.542 2.446v3.431H47.85zm5.873-4.758c.898 0 1.654.734 1.654 1.853 0 1.163-.745 1.874-1.654 1.874-.9 0-1.688-.734-1.688-1.852 0-1.13.789-1.875 1.688-1.875zm-1.655-1.031h-1.326v7.544h1.326v-2.653c.406.537 1.007 1.02 1.961 1.02 1.381 0 2.696-1.086 2.696-3.005 0-1.94-1.326-3.026-2.696-3.026-.931 0-1.535.483-1.96 1.086v-.966zm10.54 2.906c0-1.02-.734-1.864-1.775-1.864-1.063 0-1.742.834-1.742 1.864 0 1.009.734 1.864 1.764 1.864 1.074 0 1.753-.845 1.753-1.864zm-4.842 0c0-1.656 1.314-3.026 3.089-3.026s3.079 1.349 3.079 3.026c0 1.645-1.315 3.016-3.1 3.016-1.765 0-3.069-1.349-3.069-3.016zm9.258-1.765h1.906v3.508h-2.444c.34-.713.538-1.688.538-2.741v-.767zm-1.896 3.508h-.625v2.533h1.107l.132-1.393h4.053v1.393h1.107l.175-2.532h-.821v-4.65h-4.481v.714c0 1.622-.165 2.97-.647 3.936zm7.055-4.649h1.326v2.346h2.553v-2.346h1.326v5.79h-1.326v-2.335H73.51v2.334h-1.326v-5.789zm13.915 5.79h-1.326v-5.79h1.326v5.79zm-3.528-1.93c0 .559-.384.855-1.052.855H80.38v-1.656h1.117c.68 0 1.074.285 1.074.801zm-2.19-3.86h-1.327v5.79h2.64c1.359 0 2.203-.735 2.203-1.93 0-1.261-.997-1.831-2.301-1.831h-1.216v-2.029zm11.35 2.489c-.088-.855-.592-1.524-1.468-1.524-.812 0-1.381.625-1.502 1.524h2.97zm-4.284.406c0-1.655 1.172-3.015 2.826-3.015 1.842 0 2.772 1.447 2.772 3.114 0 .087-.01.307-.021.372h-4.251c.142.944.81 1.47 1.665 1.47.646 0 1.107-.242 1.567-.69l.778.69c-.549.658-1.305 1.085-2.367 1.085-1.677 0-2.97-1.217-2.97-3.026zm15.382-2.895h-5.16v5.79h1.325v-4.65h2.509v4.65h1.326v-5.79zm5.631 2.489c-.087-.855-.591-1.524-1.468-1.524-.81 0-1.38.625-1.501 1.524h2.969zm-4.284.406c0-1.655 1.173-3.015 2.827-3.015 1.841 0 2.772 1.447 2.772 3.114 0 .087-.011.307-.021.372h-4.252c.143.944.811 1.47 1.665 1.47.647 0 1.107-.242 1.567-.69l.778.69c-.548.658-1.304 1.085-2.367 1.085-1.676 0-2.969-1.217-2.969-3.026zm9.915-1.864c.899 0 1.655.734 1.655 1.853 0 1.163-.746 1.874-1.655 1.874-.898 0-1.687-.734-1.687-1.852 0-1.13.789-1.875 1.687-1.875zm-1.654-1.031h-1.325v7.544h1.325v-2.653c.405.537 1.008 1.02 1.962 1.02 1.38 0 2.694-1.086 2.694-3.005 0-1.94-1.326-3.026-2.694-3.026-.932 0-1.535.483-1.962 1.086v-.966zm9.981 2.489c-.087-.855-.591-1.524-1.467-1.524-.812 0-1.381.625-1.502 1.524h2.969zm-4.284.406c0-1.655 1.172-3.015 2.826-3.015 1.842 0 2.773 1.447 2.773 3.114 0 .087-.012.307-.021.372h-4.252c.143.944.811 1.47 1.665 1.47.647 0 1.107-.242 1.567-.69l.778.69c-.548.658-1.304 1.085-2.366 1.085-1.677 0-2.97-1.217-2.97-3.026zm10.726 1.096c0 .45-.34.746-.986.746h-1.501v-1.447h1.436c.711 0 1.051.285 1.051.7zm-.263-2.313c0 .416-.306.713-.865.713h-1.359v-1.371h1.381c.591 0 .843.286.843.658zm-.559-1.678h-2.969v5.79h3.002c1.315 0 2.137-.593 2.137-1.568 0-.822-.493-1.25-1.195-1.448.494-.218.932-.592.932-1.326 0-.888-.756-1.448-1.907-1.448zm8.021 2.906c0-1.02-.735-1.864-1.775-1.864-1.064 0-1.743.834-1.743 1.864 0 1.009.735 1.864 1.764 1.864 1.074 0 1.754-.845 1.754-1.864zm-4.844 0c0-1.656 1.316-3.026 3.09-3.026 1.775 0 3.08 1.349 3.08 3.026 0 1.645-1.316 3.016-3.101 3.016-1.765 0-3.069-1.349-3.069-3.016zm7.363 1.25l-.625.877c.68.581 1.502.889 2.532.889 1.402 0 2.322-.79 2.322-1.766 0-.745-.426-1.184-1.051-1.404.504-.219.909-.613.909-1.315 0-.9-.887-1.557-2.159-1.557-.942 0-1.763.318-2.355.833l.592.833c.438-.383 1.041-.591 1.643-.591.548 0 .954.263.954.657 0 .439-.395.757-1.02.757h-.712v.954h.712c.756 0 1.173.296 1.173.723 0 .483-.493.8-1.096.8a2.83 2.83 0 01-1.819-.69zm5.609-4.156h1.316v2.774l2.519-2.774h1.557l-2.246 2.434 2.432 3.355h-1.567l-1.753-2.39-.942.999v1.391h-1.316v-5.789zm7.79 0h-1.292v5.79h1.249l2.749-3.86v3.86h1.283v-5.79h-1.249c-.92 1.295-1.83 2.587-2.74 3.882v-3.882zM107.81 5.31l-1.57 4.245 3.18.01-1.61-4.255zm-2.512-4.48h2.332a3.854 3.854 0 013.604 2.46l.358.92c1.657 4.268 4.342 11.182 4.764 12.055l-4.38.012-1.313-3.459-5.654-.004-1.292 3.452h-4.369l5.95-15.437zm-14.15.013v8.87L80.169.822v11.642a3.796 3.796 0 003.806 3.8l.521-.002v-6.33l7.366 6.343h3.607V4.682c0-2.103-1.707-3.849-3.808-3.842l-.513.002zm39.895 8.87V.841l.513-.002c2.101-.007 3.808 1.74 3.808 3.842v11.594h-3.613l-7.36-6.344v6.33l-.521.002a3.796 3.796 0 01-3.806-3.799l.002-11.642 10.977 8.888zm14.533-5.36h6.242c1.896-.003 3.43-1.636 3.43-3.532l-10.413.003c-2.91 0-4.719 2.483-4.719 4.942 0 2.397 2.21 4.628 4.701 4.628h4.979c.696 0 1.203.602 1.203 1.186 0 .617-.44 1.244-1.203 1.244h-6.253c-2.004 0-3.63 1.448-3.632 3.453l10.627-.004c2.872 0 4.68-2.476 4.68-4.696 0-2.613-2.008-4.803-4.703-4.777h-4.953c-.725 0-1.265-.564-1.265-1.188 0-.631.443-1.26 1.279-1.26zM70.492 12.06c.556 0 1.01-.454 1.01-1.01v-5c0-.556-.454-1.01-1.01-1.01l-6.79-.002V5.375c.916.563.959 1.651.976 2.135l.004 3.54c0 .557.453 1.01 1.01 1.01h4.8zM65.692.536h4.8a5.52 5.52 0 015.512 5.516v4.998a5.52 5.52 0 01-5.512 5.517h-4.8a5.52 5.52 0 01-5.513-5.517V6.052A5.52 5.52 0 0165.69.536z" fill="#0D3A8A"/></svg>