<svg width="51" height="51" fill="none" xmlns="http://www.w3.org/2000/svg"><path fill-rule="evenodd" clip-rule="evenodd" d="M50.936 25.485c0 14.075-11.402 25.483-25.468 25.483C11.403 50.968 0 39.56 0 25.485 0 11.409 11.403 0 25.468 0c14.066 0 25.468 11.41 25.468 25.485z" fill="#0D3A8A"/><path fill-rule="evenodd" clip-rule="evenodd" d="M26.528 18.907h-7.174v.605c1.628.998 1.704 2.936 1.734 3.796l.006 3.285c0 .151.122.273.273.273h5.505a3.694 3.694 0 003.688-3.69v-.883c0-2.488-2.172-3.386-4.032-3.386z" fill="#FF2126"/><path fill-rule="evenodd" clip-rule="evenodd" d="M30.56 23.175a3.694 3.694 0 01-3.689 3.692h-5.504a.274.274 0 01-.274-.274l-.004-3.286c-.031-.858-.107-2.796-1.734-3.795v-.604h7.173c1.86 0 4.032.897 4.032 3.384v.883zm3.775 8.405c2.907-1.362 4.72-4.324 4.908-8.115.236-4.714-2.074-9.108-5.598-10.676-1.794-.864-4.945-1.302-9.367-1.302-3.85 0-7.415.33-9.198.527-4.564.505-4.837.85-5 1.057l-.144.181v6.468l.418.168c2.579 1.038 2.578 1.259 2.566 4.953l-.001 9.506c0 3.023 2.366 5.136 5.753 5.136h2.404l.009-5.466h4.188l3.213 3.463c1.445 1.838 3.687 2.003 5.483 2.003h7.03s-5.035-6.002-6.664-7.903z" fill="white"/></svg>