<svg width="63" height="63" fill="none" xmlns="http://www.w3.org/2000/svg"><path fill-rule="evenodd" clip-rule="evenodd" d="M62.962 31.481c0 17.387-14.094 31.48-31.481 31.48C14.095 62.961 0 48.868 0 31.481S14.095 0 31.481 0c17.387 0 31.481 14.094 31.481 31.481z" fill="#E1E3EB"/><path fill-rule="evenodd" clip-rule="evenodd" d="M37.776 28.628a4.564 4.564 0 01-4.56 4.56h-6.804a.338.338 0 01-.338-.338l-.006-4.059c-.038-1.06-.132-3.454-2.143-4.688l-.001-.747h8.868c2.299 0 4.984 1.11 4.984 4.181v1.091zm4.666 10.383c3.593-1.684 5.834-5.343 6.067-10.026.291-5.822-2.564-11.25-6.92-13.186-2.217-1.069-6.112-1.61-11.579-1.61-4.759 0-9.166.409-11.369.652-5.642.623-5.98 1.05-6.181 1.306l-.178.224v7.99l.517.206c3.187 1.282 3.186 1.555 3.172 6.119l-.002 11.742c0 3.736 2.925 6.346 7.112 6.346h2.971l.011-6.754h5.177l3.972 4.278c1.786 2.271 4.558 2.475 6.777 2.475h8.691s-6.225-7.415-8.238-9.763z" fill="white"/></svg>