<svg width="229" height="280" viewBox="0 0 229 280" fill="none" xmlns="http://www.w3.org/2000/svg">
<path fill-rule="evenodd" clip-rule="evenodd" d="M104 106.476C104 131.033 84.0697 151 59.5588 151H-6.75224C-8.57472 151 -10.0463 149.516 -10.0463 147.7L-10.1048 108.068C-10.4752 97.7079 -11.3913 74.3328 -30.9903 62.2937C-31 60.9561 -31 56.4548 -31 55H55.4265C77.8323 55 104 65.8283 104 95.8234V106.476ZM148.761 207.866C183.757 191.466 205.585 155.811 207.854 110.178C210.689 53.4364 182.881 0.543861 140.453 -18.3213C118.859 -28.7283 80.9214 -34 27.6723 -34C-18.6808 -34 -61.6053 -30.0243 -83.0628 -27.6564C-138.016 -21.5759 -141.309 -17.415 -143.266 -14.9302L-145 -12.7475V65.1102L-139.964 67.1273C-108.923 79.6196 -108.932 82.2798 -109.069 126.743C-109.079 129.725 -109.088 241.172 -109.088 241.172C-109.088 277.567 -80.5985 303 -39.8168 303H-10.879L-10.7718 237.196H39.6526L78.3403 278.883C95.7361 301.012 122.736 303 144.349 303H229C229 303 168.368 230.745 148.761 207.866Z" fill="white"/>
</svg>
