<svg xmlns="http://www.w3.org/2000/svg" xmlns:xlink="http://www.w3.org/1999/xlink" width="147" height="105" viewBox="0 0 147 105"><svg width="19" height="27" viewBox="-5 -5 19 27" id="ico-facebook" y="0"><defs><path id="a" d="M1070.74 2390.11h-2.43v8.11h-3.6v-8.11H1063v-2.86h1.71v-1.85c0-1.33.67-3.4 3.63-3.4l2.67.01v2.78h-1.94c-.31 0-.76.15-.76.78v1.68h2.74z"></path></defs><desc>Generated with Avocode.</desc><use xlink:href="#a" transform="translate(-1063 -2381)"></use></svg><svg width="27" height="24" viewBox="-5 -5 27 24" id="ico-twitt" y="27"><defs><path id="a" d="M1044.08 2387.21l.01.42a9.46 9.46 0 0 1-9.81 9.27c-1.94 0-3.75-.54-5.28-1.46a7.38 7.38 0 0 0 5.1-1.35 3.45 3.45 0 0 1-3.22-2.26c.22.04.43.05.65.05.32 0 .62-.03.91-.11a3.3 3.3 0 0 1-2.76-3.19v-.04c.46.24.99.39 1.56.4a3.2 3.2 0 0 1-1.54-2.71c0-.59.17-1.15.47-1.63a10 10 0 0 0 7.11 3.4 3.06 3.06 0 0 1-.09-.74c0-1.8 1.54-3.26 3.45-3.26.99 0 1.88.4 2.51 1.03a7.24 7.24 0 0 0 2.19-.79c-.25.76-.8 1.4-1.51 1.8a7.3 7.3 0 0 0 1.98-.51 6.91 6.91 0 0 1-1.73 1.68"></path></defs><desc>Generated with Avocode.</desc><use xlink:href="#a" transform="translate(-1029 -2383)"></use></svg><svg width="147" height="54" viewBox="-5 -5 147 54" id="logo" y="51"><g clip-path="url(#a)"><path fill-rule="evenodd" clip-rule="evenodd" d="M75.643 8.238a1 1 0 1 0-1-1.732l-7.487 4.326a1 1 0 0 0 1 1.732l7.487-4.326zm41.2 2.158a1 1 0 0 0-1.001-1.731l-14.466 8.36-6.983-4.182a1 1 0 1 0-1.027 1.716l7.487 4.485a1 1 0 0 0 1.015.008l14.975-8.656zM101.869.014a1 1 0 0 0-1 0L82.142 10.828a1 1 0 0 0 1 1.732l18.227-10.525 6.99 4.037a1 1 0 1 0 1-1.732l-7.49-4.326zm33.71 12.546a1 1 0 0 0-1.001-1.731l-3.737 2.16a1 1 0 1 0 1.001 1.731l3.737-2.16z"></path><path fill-rule="evenodd" clip-rule="evenodd" d="M79.758 4.706a1 1 0 0 1-.365 1.366l-3.75 2.166a1 1 0 1 1-1-1.732l3.75-2.166a1 1 0 0 1 1.365.366zm44.951.001c.275.479.111 1.09-.367 1.366l-7.499 4.324a.999.999 0 1 1-.999-1.733l7.499-4.323a1 1 0 0 1 1.366.366zM83.141 12.56a1 1 0 0 0-1-1.732l-7.494 4.328a1 1 0 0 0 1 1.732l7.494-4.328zm48.701 2.16a1 1 0 1 0-1.001-1.731l-3.255 1.88-3.244-1.875a1 1 0 1 0-1.001 1.732l3.744 2.164a1 1 0 0 0 1.001 0l3.756-2.17zM123.837 28.569a1 1 0 0 0-1 1v11.386a1 1 0 0 0 2 0V36.26h6.506c1.229 0 2.381-.376 3.247-1.033.867-.658 1.49-1.64 1.49-2.807 0-1.165-.622-2.15-1.488-2.81-.866-.661-2.018-1.041-3.249-1.041h-7.506zm7.506 5.69h-6.506v-3.69h6.506c.832 0 1.549.259 2.036.63.486.371.701.812.701 1.221 0 .408-.214.845-.699 1.213-.487.37-1.204.627-2.038.627z"></path><path d="M49.887 29.57a1 1 0 0 1-1 1l-10.242.004v3.688h7.881a1 1 0 1 1 0 2h-7.882v3.697h10.243a1 1 0 1 1 0 2H37.645a1 1 0 0 1-1-1V29.574a1 1 0 0 1 1-1l11.242-.004a1 1 0 0 1 1 1zm-18.723 0a1 1 0 0 0-1.5-.866l-6.999 4.041-3.258-1.882a1 1 0 1 0-1 1.732l3.758 2.171a1 1 0 0 0 1 0l5.999-3.464v9.644a1 1 0 0 0 2 0V29.57zm-15.012 0a1 1 0 0 0-2 0v11.386a1 1 0 0 0 2 0V29.57zm62.713-1a1 1 0 0 1 1 1v4.692h9.241V29.57a1 1 0 1 1 2 0v5.656l.001.036v5.693a1 1 0 1 1-2 0v-4.693h-9.242v4.693a1 1 0 1 1-2 0V29.57a1 1 0 0 1 1-1z"></path><path fill-rule="evenodd" clip-rule="evenodd" d="M96.603 40.955a1 1 0 0 1 1-1h1.337l7.193-10.929a1 1 0 0 1 1.671 0l7.197 10.93h1.337a1 1 0 0 1 1 1v2.164a1 1 0 0 1-2 0v-1.165h-.768a.997.997 0 0 1-.208 0H99.579a.993.993 0 0 1-.208 0h-.768v1.165a1 1 0 1 1-2 0v-2.165zm16.003-1h-11.271l5.634-8.56 5.637 8.56zM64.712 29.026a1 1 0 0 0-1.67 0l-7.496 11.385a1 1 0 0 0 1.67 1.1l2.554-3.88h8.212l2.553 3.88a1 1 0 1 0 1.67-1.1l-7.493-11.385zm1.953 6.605l-2.788-4.236-2.79 4.236h5.578z"></path></g></svg></svg>