<?xml version="1.0" encoding="utf-8"?><svg xmlns="http://www.w3.org/2000/svg" xmlns:xlink="http://www.w3.org/1999/xlink"><symbol viewBox="0 0 5 9" id="arrow-angle" xmlns="http://www.w3.org/2000/svg"><path d="M4.05 8.002l-4.05-4 4.05-4L5 .939 1.899 4.002 5 7.064l-.95.938z"/></symbol><symbol viewBox="0 0 20 9" id="arrow-next" xmlns="http://www.w3.org/2000/svg"><path d="M17.293 5H.5a.5.5 0 010-1h16.793l-2.647-2.646a.5.5 0 01.708-.708L19.207 4.5l-3.854 3.853a.5.5 0 11-.707-.707L17.293 5z"/></symbol><symbol viewBox="0 0 25 25" id="cross" xmlns="http://www.w3.org/2000/svg"><path fill-rule="evenodd" clip-rule="evenodd" d="M2.31.48L.896 1.895 11.503 12.5.896 23.108l1.414 1.414 10.607-10.606 10.607 10.606 1.414-1.414L14.33 12.5 24.938 1.895 23.524.48 12.917 11.087 2.31.48z"/></symbol><symbol viewBox="0 0 20 5.97" id="i-arrow1" xmlns="http://www.w3.org/2000/svg"><path d="M20 2.97a1.014 1.014 0 01-.31.72l-.01.01-1.96 1.96a1.018 1.018 0 11-1.44-1.44l.25-.25H1a1 1 0 010-2h15.53l-.25-.25A1.018 1.018 0 1117.72.28l1.96 1.96.01.01a1.014 1.014 0 01.31.72z"/></symbol><symbol viewBox="0 0 18 18" id="i-cart" xmlns="http://www.w3.org/2000/svg"><path d="M17 5h-3v10a1 1 0 01-1 1h-1v2h-2v-2H6v2H4v-2H3a1 1 0 010-2h9v-2H2a2 2 0 01-2-2V6a1 1 0 012 0v4h10V4a1 1 0 011-1h4a1 1 0 010 2zM7.824 7.55a.77.77 0 01-.11.16.951.951 0 01-.7.29H6.98a.954.954 0 01-.7-.29.852.852 0 01-.113-.17L4.28 5.66a.97.97 0 111.371-1.37l.343.34V1a1 1 0 012 0v3.63l.343-.34a.97.97 0 111.371 1.37z" fill-rule="evenodd"/></symbol><symbol viewBox="0 0 486.196 486.196" id="i-house" xmlns="http://www.w3.org/2000/svg"><path d="M481.708 220.456l-228.8-204.6c-.4-.4-.8-.7-1.3-1-5-4.8-13-5-18.3-.3l-228.8 204.6c-5.6 5-6 13.5-1.1 19.1 2.7 3 6.4 4.5 10.1 4.5 3.2 0 6.4-1.1 9-3.4l41.2-36.9v238.6c0 18.7 15.2 34 34 34h72.2c17.6 0 31.9-14.3 31.9-31.9v-121.3c0-2.7 2.2-4.9 4.9-4.9h72.9c2.7 0 4.9 2.2 4.9 4.9v121.3c0 17.6 14.3 31.9 31.9 31.9h72.2c19 0 34-18.7 34-42.6v-228.7l41.2 36.9c2.6 2.3 5.8 3.4 9 3.4 3.7 0 7.4-1.5 10.1-4.5 4.8-5.6 4.3-14.1-1.2-19.1zm-86.2 66.7v145.1c0 9.7-4.8 15.6-7 15.6h-72.2c-2.7 0-4.9-2.2-4.9-4.9v-121.1c0-17.6-14.3-31.9-31.9-31.9h-72.9c-17.6 0-31.9 14.3-31.9 31.9v121.3c0 2.7-2.2 4.9-4.9 4.9h-72.2c-3.8 0-7-3.1-7-7v-262.8l151.8-135.6 153.1 136.9v107.6z"/></symbol><symbol viewBox="0 0 512 512" id="i-mail" xmlns="http://www.w3.org/2000/svg"><path d="M30 92c-8 0-13 .667-15 2s-2.333 2.833-1 4.5 4.667 4.5 10 8.5c2.667 2 4.667 3.667 6 5l226 172 226-171 5-5c5.333-4 8.833-6.833 10.5-8.5s1.5-3.333-.5-5-7-2.5-15-2.5H30z"/><path d="M0 132v254c0 7.333 3 14.833 9 22.5S21 420 27 420h458c6 0 12-3.833 18-11.5s9-15.167 9-22.5V132L256 328 0 132z"/></symbol><symbol viewBox="0 0 12 16" id="i-marker" xmlns="http://www.w3.org/2000/svg"><path d="M6 16.01c-3.318 0-6.008-7.14-6.008-10.3a6.015 6.015 0 0112.016 0c0 3.16-2.69 10.3-6.008 10.3zM6 3.42a2.293 2.293 0 102.4 2.29A2.352 2.352 0 006 3.42z" fill-rule="evenodd"/></symbol><symbol viewBox="0 0 14.062 14.03" id="i-phone" xmlns="http://www.w3.org/2000/svg"><path d="M1.109 6.08L6.5 11.76s2.132 2.27 4.314 2.27 3.234-1.12 3.234-2.27-1.818-3.41-3.234-3.41-1.188 1.14-2.157 1.14-4.313-3.41-4.313-3.41-.767-1.46 0-2.27a1.568 1.568 0 000-2.27C3.823.99 2.203-.75 1.109.4S.031 2.22.031 3.81a2.7 2.7 0 001.078 2.27z" fill-rule="evenodd"/></symbol><symbol viewBox="0 0 7.625 12.75" id="i-slider-arrow" xmlns="http://www.w3.org/2000/svg"><path data-name="left_arrow копия copy" d="M.362 5.41L5.418.38A1.292 1.292 0 017.253 2.2L3.076 6.37l4.177 4.16a1.293 1.293 0 010 1.83 1.31 1.31 0 01-1.835 0L.362 7.32a1.273 1.273 0 01-.372-.95 1.3 1.3 0 01.372-.96z" fill-rule="evenodd"/></symbol><symbol viewBox="0 0 14.031 14.031" id="i-time" xmlns="http://www.w3.org/2000/svg"><path d="M7.008 14.031a7.009 7.009 0 117.009-7.008 7.009 7.009 0 01-7.009 7.008zm2.792-7H7v-2.8H5.6v4.2h4.2v-1.4z" fill-rule="evenodd"/></symbol><symbol viewBox="0 0 488.152 488.152" id="i_calendar" xmlns="http://www.w3.org/2000/svg"><path d="M177.854 269.311c0-6.115-4.96-11.069-11.08-11.069h-38.665c-6.113 0-11.074 4.954-11.074 11.069v38.66c0 6.123 4.961 11.079 11.074 11.079h38.665c6.12 0 11.08-4.956 11.08-11.079v-38.66zm96.629 0c0-6.115-4.961-11.069-11.069-11.069h-38.67c-6.113 0-11.074 4.954-11.074 11.069v38.66c0 6.123 4.961 11.079 11.074 11.079h38.67c6.108 0 11.069-4.956 11.069-11.079v-38.66zm96.634 0c0-6.115-4.961-11.069-11.074-11.069h-38.665c-6.12 0-11.08 4.954-11.08 11.069v38.66c0 6.123 4.96 11.079 11.08 11.079h38.665c6.113 0 11.074-4.956 11.074-11.079v-38.66zM177.854 365.95c0-6.125-4.96-11.075-11.08-11.075h-38.665c-6.113 0-11.074 4.95-11.074 11.075v38.653c0 6.119 4.961 11.074 11.074 11.074h38.665c6.12 0 11.08-4.956 11.08-11.074V365.95zm96.629 0c0-6.125-4.961-11.075-11.069-11.075h-38.67c-6.113 0-11.074 4.95-11.074 11.075v38.653c0 6.119 4.961 11.074 11.074 11.074h38.67c6.108 0 11.069-4.956 11.069-11.074V365.95zm96.634 0c0-6.125-4.961-11.075-11.069-11.075h-38.67c-6.12 0-11.08 4.95-11.08 11.075v38.653c0 6.119 4.96 11.074 11.08 11.074h38.67c6.108 0 11.069-4.956 11.069-11.074V365.95z"/><path d="M440.254 54.354v59.05c0 26.69-21.652 48.198-48.338 48.198h-30.493c-26.688 0-48.627-21.508-48.627-48.198V54.142h-137.44v59.262c0 26.69-21.938 48.198-48.622 48.198H96.235c-26.685 0-48.336-21.508-48.336-48.198v-59.05c-23.323.703-42.488 20.002-42.488 43.723v346.061c0 24.167 19.588 44.015 43.755 44.015h389.82c24.131 0 43.755-19.889 43.755-44.015V98.077c0-23.721-19.164-43.02-42.487-43.723zm-14.163 368.234c0 10.444-8.468 18.917-18.916 18.917H80.144c-10.448 0-18.916-8.473-18.916-18.917V243.835c0-10.448 8.467-18.921 18.916-18.921h327.03c10.448 0 18.916 8.473 18.916 18.921l.001 178.753z"/><path d="M96.128 129.945h30.162c9.155 0 16.578-7.412 16.578-16.567V16.573C142.868 7.417 135.445 0 126.29 0H96.128C86.972 0 79.55 7.417 79.55 16.573v96.805c0 9.155 7.422 16.567 16.578 16.567zm264.907 0h30.162c9.149 0 16.572-7.412 16.572-16.567V16.573C407.77 7.417 400.347 0 391.197 0h-30.162c-9.154 0-16.577 7.417-16.577 16.573v96.805c0 9.155 7.423 16.567 16.577 16.567z"/></symbol><symbol viewBox="0 0 16 16" id="ic_facebook" xmlns="http://www.w3.org/2000/svg"><path fill-rule="evenodd" clip-rule="evenodd" d="M15.128 0H.864A.874.874 0 000 .861v14.278c0 .502.432.861.864.861h7.708V9.83H6.483V7.39h2.09V5.596c0-2.08 1.296-3.228 3.097-3.228.864 0 1.657.071 1.873.071v2.153h-1.297c-1.008 0-1.224.502-1.224 1.148v1.578h2.377l-.288 2.44h-2.09v6.17h4.107c.504 0 .864-.43.864-.86V.932C16.064.43 15.632 0 15.128 0z"/></symbol><symbol viewBox="0 0 16 16" id="ic_insta" xmlns="http://www.w3.org/2000/svg"><path fill-rule="evenodd" clip-rule="evenodd" d="M8 .133c-2.133 0-2.4 0-3.267.067-.866.067-1.4.2-1.933.333-.533.2-.933.467-1.4.934-.467.466-.733.866-.933 1.4C.267 3.4.133 3.933.133 4.8.067 5.667.067 5.933.067 8.067c0 2.133 0 2.4.066 3.266.067.867.2 1.4.334 1.934.2.533.466.933.933 1.4.467.466.867.733 1.4.933.533.2 1.067.333 1.933.333C5.6 16 5.867 16 8 16s2.4 0 3.267-.067c.866-.066 1.4-.2 1.933-.333.533-.2.933-.467 1.4-.933.467-.467.733-.867.933-1.4.2-.534.334-1.067.334-1.934.066-.866.066-1.133.066-3.266 0-2.134 0-2.4-.066-3.267-.067-.867-.2-1.4-.334-1.933-.2-.534-.466-.934-.933-1.4-.467-.467-.867-.734-1.4-.934C12.667.333 12.133.2 11.267.2 10.4.133 10.133.133 8 .133zm4.2 2.734c-.533 0-.933.4-.933.933s.4.933.933.933.933-.4.933-.933-.4-.933-.933-.933zM8 3.933c-2.2 0-4.067 1.8-4.067 4.067 0 2.2 1.8 4.067 4.067 4.067 2.2 0 4.067-1.8 4.067-4.067 0-2.267-1.867-4.067-4.067-4.067zM8 5.4c1.467 0 2.6 1.2 2.6 2.6 0 1.467-1.2 2.6-2.6 2.6-1.467 0-2.6-1.2-2.6-2.6 0-1.467 1.133-2.6 2.6-2.6z"/></symbol><symbol viewBox="0 0 16 16" id="ic_linkedin" xmlns="http://www.w3.org/2000/svg"><path fill-rule="evenodd" clip-rule="evenodd" d="M14.842 0H1.158C.507 0 0 .502 0 1.148v13.704C0 15.498.507 16 1.158 16h13.684c.651 0 1.158-.502 1.158-1.148V1.148C16 .502 15.493 0 14.842 0zM4.667 13.333H2V6h2.667v7.333zm-1.334-8A1.33 1.33 0 012 4c0-.784.491-1.333 1.333-1.333A1.33 1.33 0 014.667 4c0 .706-.492 1.333-1.334 1.333zm10 8h-2.42V9.562c0-.978-.356-1.606-1.21-1.606a1.26 1.26 0 00-1.211.838c-.071.14-.071.349-.071.558v3.912H6V6.21h2.42v.977C8.707 6.698 9.276 6 10.558 6c1.566 0 2.776.978 2.776 3.143v4.19z"/></symbol><symbol viewBox="0 0 16 16" id="message" xmlns="http://www.w3.org/2000/svg"><path fill-rule="evenodd" clip-rule="evenodd" d="M1 0a1 1 0 00-1 1v10a1 1 0 001 1h2v4l4-4h8a1 1 0 001-1V1a1 1 0 00-1-1H1z"/></symbol><symbol viewBox="0 0 52 100" id="share_fb" xmlns="http://www.w3.org/2000/svg"><path d="M51.597.02L38.477 0C23.739 0 14.214 9.661 14.214 24.615v11.35H1.02c-1.14 0-2.063.913-2.063 2.04v16.444c0 1.126.924 2.039 2.063 2.039h13.192v41.493a2.05 2.05 0 002.063 2.04h17.21c1.14 0 2.064-.914 2.064-2.04V56.488h15.423a2.05 2.05 0 002.063-2.04l.007-16.443a2.03 2.03 0 00-.605-1.442 2.075 2.075 0 00-1.46-.599H35.55v-9.62c0-4.625 1.114-6.972 7.207-6.972l8.838-.003a2.051 2.051 0 002.062-2.04V2.06c0-1.125-.922-2.037-2.06-2.04z"/></symbol><symbol viewBox="0 0 100 100" id="share_in" xmlns="http://www.w3.org/2000/svg"><path d="M100.004 61.314v38.683h-21.43V63.905c0-9.066-3.099-15.254-10.855-15.254-5.921 0-9.445 4.17-10.995 8.204-.566 1.442-.711 3.449-.711 5.468v37.674H34.577s.289-61.127 0-67.46H56.01v9.562c-.044.071-.1.148-.141.218h.14v-.218c2.849-4.59 7.934-11.147 19.318-11.147 14.103 0 24.676 9.641 24.676 30.362zM12.154.017C4.82.017.024 5.051.024 11.67c0 6.476 4.658 11.662 11.845 11.662h.143c7.476 0 12.125-5.185 12.125-11.662C23.996 5.05 19.487.017 12.154.017zM1.297 99.997h21.428v-67.46H1.297z"/></symbol><symbol viewBox="0 0 100 100" id="share_ok" xmlns="http://www.w3.org/2000/svg"><path d="M47.362 70.474c-7.76-.81-14.755-2.72-20.745-7.405-.744-.583-1.51-1.145-2.19-1.796-2.62-2.518-2.885-5.402-.81-8.374 1.774-2.543 4.753-3.223 7.85-1.763.6.283 1.171.636 1.718 1.016 11.163 7.67 26.499 7.882 37.704.345 1.11-.851 2.297-1.545 3.672-1.9 2.674-.686 5.168.296 6.603 2.636 1.64 2.672 1.619 5.28-.401 7.354-3.1 3.18-6.826 5.482-10.966 7.088-3.916 1.518-8.204 2.282-12.449 2.79.64.696.943 1.04 1.343 1.442 5.763 5.79 11.552 11.557 17.297 17.366 1.957 1.979 2.366 4.433 1.288 6.735-1.178 2.516-3.816 4.17-6.402 3.994-1.638-.113-2.916-.929-4.051-2.073-4.35-4.376-8.78-8.672-13.042-13.132-1.24-1.296-1.837-1.051-2.931.075-4.376 4.504-8.823 8.94-13.296 13.35-2.008 1.98-4.398 2.336-6.727 1.205-2.476-1.2-4.052-3.727-3.93-6.267.083-1.719.928-3.031 2.108-4.208 5.703-5.696 11.391-11.406 17.081-17.11.377-.38.728-.782 1.276-1.368z"/><path d="M52.089 50.635c-13.843-.047-25.193-11.523-25.113-25.387C27.056 11.23 38.414-.066 52.393-.027c14.007.037 25.25 11.496 25.18 25.66-.072 13.836-11.501 25.05-25.484 25.002zm12.58-25.354c-.024-6.884-5.506-12.364-12.377-12.37-6.928-.008-12.46 5.572-12.406 12.52.051 6.857 5.58 12.299 12.47 12.273 6.869-.024 12.336-5.54 12.313-12.423z"/></symbol><symbol viewBox="0 0 100 100" id="share_sk" xmlns="http://www.w3.org/2000/svg"><path d="M94.895 56.856c.273-2.02.43-4.075.43-6.166 0-25.091-20.451-45.436-45.675-45.436a45.45 45.45 0 00-7.356.598A27.155 27.155 0 0027.41 1.43C12.349 1.43.155 13.631.155 28.688a27.13 27.13 0 004.389 14.84 45.24 45.24 0 00-.566 7.161c0 25.096 20.442 45.438 45.672 45.438 2.847 0 5.62-.278 8.314-.765a27.234 27.234 0 0014.405 4.109c15.057 0 27.256-12.205 27.256-27.26a27.134 27.134 0 00-4.73-15.355zm-40.976 27.32c-14.513.757-21.305-2.455-27.527-8.294-6.948-6.52-4.157-13.96 1.504-14.338 5.658-.377 9.054 6.414 12.074 8.303 3.016 1.882 14.492 6.17 20.553-.76 6.601-7.543-4.39-11.446-12.445-12.628-11.502-1.703-26.023-7.925-24.894-20.186 1.13-12.254 10.41-18.537 20.176-19.423 12.449-1.13 20.553 1.886 26.963 7.355 7.411 6.32 3.401 13.385-1.321 13.953-4.704.565-9.987-10.395-20.359-10.56-10.69-.167-17.915 11.125-4.718 14.335 13.204 3.207 27.344 4.524 32.437 16.595 5.096 12.071-7.917 24.891-22.443 25.648z"/></symbol><symbol viewBox="0 0 100 100" id="share_tg" xmlns="http://www.w3.org/2000/svg"><path d="M1.826 48.254l23.035 8.598 8.916 28.673c.57 1.837 2.816 2.515 4.307 1.297l12.84-10.468a3.83 3.83 0 014.67-.13l23.158 16.814c1.595 1.159 3.854.285 4.254-1.642L99.97 9.791c.436-2.105-1.632-3.86-3.636-3.085L1.8 43.175c-2.333.9-2.313 4.203.027 5.08zm30.514 4.021l45.019-27.727c.809-.497 1.641.597.947 1.241L41.152 60.326a7.702 7.702 0 00-2.387 4.608L37.5 74.313c-.167 1.252-1.926 1.377-2.272.165L30.36 57.374a4.533 4.533 0 011.98-5.099z"/></symbol><symbol viewBox="0 0 100 100" id="share_tw" xmlns="http://www.w3.org/2000/svg"><path d="M99.902 17.831a40.867 40.867 0 01-11.75 3.223A20.55 20.55 0 0097.145 9.74a41.256 41.256 0 01-13.003 4.968 20.406 20.406 0 00-14.936-6.464c-11.302 0-20.466 9.163-20.466 20.459 0 1.602.181 3.167.53 4.663-17.005-.854-32.084-9.002-42.177-21.382A20.309 20.309 0 004.327 22.27c0 7.1 3.615 13.365 9.1 17.03a20.466 20.466 0 01-9.269-2.568v.255c0 9.912 7.057 18.184 16.414 20.067a20.728 20.728 0 01-5.393.717c-1.321 0-2.599-.131-3.852-.38 2.606 8.134 10.161 14.05 19.113 14.212-7 5.486-15.828 8.746-25.415 8.746-1.652 0-3.28-.1-4.881-.28 9.057 5.816 19.81 9.207 31.368 9.207 37.645 0 58.223-31.181 58.223-58.223l-.069-2.65a40.866 40.866 0 0010.236-10.572z"/></symbol><symbol viewBox="0 0 100 100" id="share_vb" xmlns="http://www.w3.org/2000/svg"><path d="M85.866 41.98c.12-14.147-11.93-27.116-26.86-28.91a21.006 21.006 0 01-.964-.145c-.739-.123-1.503-.248-2.275-.248-3.06 0-3.878 2.15-4.093 3.431-.21 1.247-.01 2.294.593 3.113 1.013 1.378 2.796 1.622 4.228 1.819.42.057.816.111 1.148.186 13.415 2.997 17.932 7.71 20.14 21.011.054.325.078.726.104 1.15.096 1.59.297 4.899 3.853 4.899.297 0 .615-.026.946-.076 3.312-.504 3.208-3.528 3.158-4.98-.014-.41-.027-.797.007-1.054.01-.065.014-.13.015-.195z"/><path d="M54.9 7.877c.397.029.773.056 1.086.104 22.029 3.388 32.16 13.825 34.967 36.027.048.377.055.837.063 1.325.028 1.734.086 5.343 3.961 5.418h.12c1.216 0 2.182-.366 2.874-1.09 1.206-1.261 1.122-3.136 1.054-4.642-.016-.37-.032-.718-.028-1.022C99.277 21.29 79.622.7 56.937-.065a1.573 1.573 0 00-.275.014 1.898 1.898 0 01-.269.015c-.226 0-.504-.02-.8-.04-.356-.024-.76-.052-1.17-.052-3.614 0-4.3 2.568-4.388 4.099-.203 3.537 3.22 3.786 4.864 3.906zm34.99 64.825a70.094 70.094 0 01-1.406-1.093c-2.405-1.936-4.964-3.72-7.438-5.446-.514-.357-1.028-.715-1.54-1.074-3.17-2.227-6.02-3.31-8.712-3.31-3.626 0-6.788 2.005-9.398 5.956-1.156 1.752-2.558 2.603-4.287 2.603-1.022 0-2.184-.291-3.452-.867-10.232-4.64-17.538-11.754-21.716-21.144-2.02-4.539-1.365-7.506 2.19-9.92 2.018-1.37 5.775-3.92 5.51-8.804-.302-5.547-12.54-22.234-17.695-24.13-2.183-.802-4.477-.81-6.83-.018C9.19 7.447 4.936 10.947 2.814 15.574c-2.05 4.47-1.957 9.72.268 15.182C9.514 46.545 18.556 60.31 29.96 71.67 41.12 82.79 54.839 91.9 70.733 98.744c1.432.616 2.935.953 4.032 1.198.374.084.697.156.932.22.13.035.263.054.397.056h.125c7.476 0 16.452-6.83 19.209-14.618 2.415-6.82-1.994-10.19-5.538-12.898zM58.206 25.913c-1.28.033-3.944.099-4.878 2.812-.438 1.267-.385 2.368.155 3.271.794 1.325 2.314 1.731 3.697 1.954 5.014.805 7.59 3.578 8.105 8.726.239 2.4 1.855 4.077 3.93 4.077h.001c.154 0 .31-.01.466-.028 2.497-.297 3.707-2.131 3.597-5.45.04-3.465-1.773-7.398-4.856-10.531-3.095-3.143-6.825-4.913-10.217-4.83z"/></symbol><symbol viewBox="0 0 175.78 100.29" id="share_vk" xmlns="http://www.w3.org/2000/svg"><path d="M171.737 87.02c-.204-.454-.394-.83-.57-1.131-2.92-5.428-8.5-12.091-16.735-19.99l-.174-.181-.087-.089-.088-.09h-.089c-3.737-3.68-6.104-6.152-7.096-7.418-1.813-2.413-2.22-4.854-1.228-7.328.7-1.869 3.33-5.816 7.885-11.847a659.355 659.355 0 005.695-7.688c10.106-13.869 14.487-22.731 13.143-26.59l-.522-.903c-.35-.543-1.256-1.04-2.715-1.492-1.462-.452-3.33-.527-5.609-.226l-25.233.18c-.409-.15-.993-.136-1.753.046-.76.18-1.14.272-1.14.272l-.439.226-.348.272c-.292.18-.614.497-.964.95-.35.45-.641.98-.874 1.582-2.748 7.296-5.871 14.08-9.377 20.35-2.161 3.74-4.146 6.98-5.959 9.723-1.81 2.743-3.329 4.764-4.554 6.06-1.228 1.296-2.336 2.335-3.33 3.12-.994.784-1.752 1.116-2.278.995a62.515 62.515 0 01-1.49-.362c-.818-.543-1.475-1.282-1.97-2.216-.499-.935-.834-2.111-1.009-3.528-.174-1.418-.277-2.638-.307-3.663-.027-1.024-.015-2.473.045-4.342.06-1.87.088-3.135.088-3.799 0-2.292.043-4.779.13-7.462.088-2.683.16-4.81.22-6.375.06-1.568.087-3.227.087-4.976 0-1.748-.103-3.12-.307-4.115a14.402 14.402 0 00-.918-2.894c-.41-.935-1.009-1.658-1.796-2.171-.788-.513-1.768-.92-2.935-1.222-3.096-.723-7.039-1.114-11.83-1.175-10.863-.12-17.844.604-20.94 2.172-1.226.662-2.336 1.567-3.329 2.712-1.052 1.327-1.198 2.051-.439 2.17 3.505.542 5.987 1.839 7.447 3.889l.526 1.086c.41.784.819 2.172 1.228 4.161.408 1.99.672 4.19.788 6.601.291 4.402.291 8.171 0 11.306-.293 3.136-.569 5.578-.833 7.326-.263 1.75-.657 3.166-1.183 4.251-.526 1.085-.876 1.749-1.052 1.99-.175.24-.32.392-.437.452-.76.3-1.549.453-2.366.453-.818 0-1.81-.423-2.979-1.267-1.168-.845-2.38-2.005-3.635-3.482-1.257-1.478-2.673-3.543-4.25-6.196-1.577-2.653-3.213-5.788-4.907-9.406l-1.401-2.624c-.877-1.688-2.073-4.145-3.592-7.37a144.489 144.489 0 01-4.03-9.363c-.468-1.266-1.169-2.23-2.103-2.894l-.439-.272c-.291-.24-.76-.496-1.401-.769a9.075 9.075 0 00-2.016-.587l-24.007.18c-2.453 0-4.117.574-4.994 1.72l-.35.542c-.176.302-.264.784-.264 1.447 0 .664.175 1.478.526 2.442a302.81 302.81 0 0011.433 24.602c4.118 7.898 7.696 14.261 10.733 19.082a225.546 225.546 0 009.287 13.658c3.155 4.281 5.243 7.025 6.264 8.23 1.023 1.208 1.827 2.11 2.41 2.714l2.191 2.17c1.402 1.447 3.46 3.18 6.177 5.2 2.717 2.021 5.725 4.01 9.025 5.972 3.3 1.958 7.14 3.556 11.522 4.792 4.38 1.237 8.645 1.733 12.792 1.494h10.076c2.044-.182 3.592-.846 4.644-1.99l.35-.454c.234-.36.453-.919.655-1.671a9.468 9.468 0 00.307-2.488c-.06-2.592.132-4.928.569-7.008.436-2.08.934-3.647 1.49-4.703.557-1.055 1.185-1.945 1.884-2.667.7-.723 1.2-1.161 1.492-1.312.29-.152.523-.255.698-.317 1.402-.482 3.052-.015 4.952 1.403 1.899 1.417 3.68 3.167 5.346 5.246 1.664 2.082 3.665 4.417 6 7.01 2.338 2.592 4.382 4.52 6.134 5.788l1.751 1.086c1.17.724 2.689 1.387 4.559 1.99 1.866.602 3.5.753 4.905.452l22.429-.361c2.218 0 3.945-.38 5.169-1.132 1.227-.753 1.956-1.584 2.19-2.487.235-.904.248-1.93.045-3.077-.207-1.143-.412-1.943-.616-2.395z"/></symbol><symbol viewBox="0 0 100 100" id="share_wa" xmlns="http://www.w3.org/2000/svg"><path d="M50.286.139h-.025C22.748.139.375 22.519.375 50.037a49.526 49.526 0 009.5 29.247l-6.22 18.537 19.18-6.131c7.89 5.227 17.303 8.246 27.45 8.246 27.513 0 49.887-22.386 49.887-49.899C100.172 22.525 77.798.14 50.286.14zM79.32 70.602c-1.203 3.398-5.98 6.218-9.792 7.042-2.607.555-6.013.998-17.477-3.755-14.664-6.075-24.107-20.976-24.843-21.943-.705-.967-5.926-7.89-5.926-15.05 0-7.161 3.637-10.648 5.102-12.145 1.204-1.228 3.194-1.79 5.103-1.79.617 0 1.172.031 1.671.056 1.466.063 2.202.15 3.169 2.464 1.203 2.9 4.135 10.06 4.484 10.797.356.736.711 1.734.212 2.7-.467.999-.88 1.441-1.615 2.29-.736.848-1.435 1.497-2.17 2.407-.674.792-1.435 1.64-.587 3.106.848 1.435 3.78 6.219 8.096 10.061 5.57 4.959 10.086 6.543 11.701 7.217 1.204.499 2.639.38 3.518-.555 1.116-1.204 2.495-3.2 3.898-5.165.998-1.41 2.258-1.584 3.58-1.085 1.348.468 8.477 3.992 9.943 4.722 1.466.736 2.432 1.085 2.788 1.702.35.618.35 3.518-.855 6.924z"/></symbol><symbol viewBox="0 0 80 80" id="video-play" xmlns="http://www.w3.org/2000/svg"><path fill-rule="evenodd" clip-rule="evenodd" d="M74.926 40c0 19.15-15.525 34.676-34.676 34.676C21.1 74.676 5.574 59.15 5.574 40 5.574 20.85 21.1 5.324 40.25 5.324 59.4 5.324 74.926 20.85 74.926 40zm4.824 0c0 21.815-17.685 39.5-39.5 39.5S.75 61.815.75 40 18.435.5 40.25.5s39.5 17.685 39.5 39.5zM30.449 56.973L59.848 40l-29.4-16.974v33.947z"/></symbol></svg>